<svg xmlns="http://www.w3.org/2000/svg" xmlns:xlink="http://www.w3.org/1999/xlink" width="115" height="115" viewBox="0 0 115 115">
  <defs>
    <clipPath id="clip-Access_Control">
      <rect width="115" height="115"/>
    </clipPath>
  </defs>
  <g id="Access_Control" data-name="Access Control" clip-path="url(#clip-Access_Control)">
    <g id="Group_1609" data-name="Group 1609" transform="translate(8.768 10.587)">
      <path id="Path_56085" data-name="Path 56085" d="M18.09,0c.475.337,1.063.253,1.586.432A8.563,8.563,0,0,1,25.52,8.794,8.45,8.45,0,0,1,19.352,16.7c-.618.174-.8.4-.788,1.018q.049,3.57,0,7.14c-.006.535.135.7.681.692,2.57-.028,5.141-.024,7.712,0a2.394,2.394,0,0,0,1.236-.4q15.47-8.717,30.93-17.451a2.88,2.88,0,0,1,3.232-.008Q77.957,16.55,93.627,25.3a2.7,2.7,0,0,1,1.59,2.713c-.072,4.979.089,9.963-.571,14.921a63.942,63.942,0,0,1-6.728,21.348,1.564,1.564,0,1,1-2.737-1.453,60.753,60.753,0,0,0,6.127-18.48c.716-4.372.636-8.783.848-13.185.117-2.431-.7-3.622-2.812-4.771C80.028,21.33,70.828,16.054,61.6,10.829a1.493,1.493,0,0,0-1.714,0Q45.512,18.969,31.1,27.041a2.954,2.954,0,0,0-1.735,2.915A88.181,88.181,0,0,0,30.42,45.785a60.1,60.1,0,0,0,16.887,31.9q5.982,6,11.984,11.982c1.114,1.113,1.8,1.126,2.893.008,4.735-4.823,9.681-9.437,14.237-14.434.939-1.03,1.775-2.153,2.668-3.225.735-.882,1.564-1.047,2.309-.481a1.566,1.566,0,0,1,.1,2.422,71.511,71.511,0,0,1-5.708,6.506q-5.709,5.668-11.382,11.373c-2.356,2.354-4.989,2.367-7.329,0-4.756-4.8-9.648-9.471-14.276-14.4a55.633,55.633,0,0,1-6.574-8.6,1.306,1.306,0,0,0-1.283-.711q-7.759.042-15.519,0c-.739-.005-.882.209-.871.9.042,2.57.034,5.141,0,7.711-.007.612.168.844.788,1.017a8.451,8.451,0,0,1,6.169,8.382,8.541,8.541,0,0,1-6.394,8.04c-.343.093-.768-.08-1.036.282H15.615c-.122-.312-.436-.212-.655-.275a8.5,8.5,0,0,1-6.429-8.2,8.4,8.4,0,0,1,6.306-8.264c.6-.168.628-.461.627-.94-.011-3.173-.007-6.345-.005-9.518,0-1.795.45-2.241,2.261-2.242q7.567,0,15.135,0H33.96A62.4,62.4,0,0,1,28.243,50.3c-.158-.635-.407-.786-1.014-.78q-4.759.042-9.519,0c-.593,0-.843.124-1.022.765a8.49,8.49,0,0,1-16.332.13C.279,50.165.329,49.831,0,49.7V46.461c.24-.078.181-.3.231-.474a8.5,8.5,0,0,1,16.512-.06.613.613,0,0,0,.718.532q4.663-.019,9.326,0c.442,0,.59-.062.5-.571-.251-1.5-.453-3.007-.63-4.516a88.492,88.492,0,0,1-.342-11.689c.014-.91-.278-1.07-1.1-1.054-2.568.05-5.138.024-7.708.017-1.541,0-2.05-.516-2.052-2.056,0-2.918-.016-5.836.01-8.754.006-.647-.109-.956-.841-1.162a8.4,8.4,0,0,1-6.1-8.134A8.465,8.465,0,0,1,14.707.354c.25-.073.584-.026.717-.355Zm-1.115,13.93a5.407,5.407,0,1,0-5.359-5.491,5.414,5.414,0,0,0,5.359,5.491m0,66.587A5.379,5.379,0,0,0,11.616,86a5.416,5.416,0,1,0,5.359-5.489M8.489,42.6a5.4,5.4,0,1,0,5.423,5.422A5.416,5.416,0,0,0,8.489,42.6" transform="translate(0 0.001)" fill="#545da2"/>
      <path id="Path_56086" data-name="Path 56086" d="M255.271,173.377c-1.218,1.255-1.862,1.256-3.121,0q-8.717-8.715-17.417-17.447c-.548-.553-.822-.5-1.408-.052-7.077,5.469-14.921,6.869-23.257,3.645-8.477-3.279-13.518-9.683-14.9-18.664a23.589,23.589,0,1,1,46.721-6.548A23.117,23.117,0,0,1,237.153,152c-.864,1.135-.874,1.128.16,2.161q8.414,8.412,16.826,16.827c.4.4.756.832,1.132,1.249Zm-36.8-15.326A20.507,20.507,0,1,0,198,137.489a20.667,20.667,0,0,0,20.469,20.563" transform="translate(-157.774 -92.259)" fill="#545da2"/>
      <path id="Path_56087" data-name="Path 56087" d="M267.071,245.949q-5.09,0-10.18,0c-1.54,0-2.073-.531-2.027-2.054a12.251,12.251,0,0,1,24.184-2.274,16.423,16.423,0,0,1,.32,2.255c.109,1.418-.509,2.069-1.926,2.072q-5.185.009-10.37,0m.057-3.082c2.692,0,5.384-.031,8.075.019.806.015.959-.209.754-.948a9.189,9.189,0,0,0-17.709.073c-.217.791,0,.88.709.871,2.723-.036,5.447-.014,8.171-.014" transform="translate(-206.311 -187.885)" fill="#545da2"/>
      <path id="Path_56088" data-name="Path 56088" d="M294.159,161.365a6.965,6.965,0,1,1-7.062-6.82,7,7,0,0,1,7.062,6.82m-3.11.089a3.847,3.847,0,1,0-3.808,3.888,3.81,3.81,0,0,0,3.808-3.888" transform="translate(-226.847 -125.104)" fill="#545da2"/>
    </g>
  </g>
</svg>
