<svg xmlns="http://www.w3.org/2000/svg" xmlns:xlink="http://www.w3.org/1999/xlink" width="115" height="115" viewBox="0 0 115 115">
  <defs>
    <clipPath id="clip-Bot_Management">
      <rect width="115" height="115"/>
    </clipPath>
  </defs>
  <g id="Bot_Management" data-name="Bot Management" clip-path="url(#clip-Bot_Management)">
    <g id="Group_1607" data-name="Group 1607" transform="translate(12 7)">
      <path id="Path_56075" data-name="Path 56075" d="M60.7,0A12.489,12.489,0,0,1,65.8,2.439a9.452,9.452,0,0,1,3.377,7q.142,7.41.01,14.824c-.1,5.618-4.456,9.627-10.354,9.682-2.106.02-4.212,0-6.4,0v3.671h1.158c9.16-.025,18.319-.028,27.479-.1a2.274,2.274,0,0,1,2.421,1.555,10.074,10.074,0,0,1,.63,6.647,1.786,1.786,0,0,0,.3,1.313q2.96,4.077,6.013,8.086a6.748,6.748,0,0,1,.908,7.135,15.243,15.243,0,0,0-.578,3.979c-.409,3.829-.712,7.672-1.218,11.489a5.221,5.221,0,0,1-3.874,4.309c-1.416.492-2.791,1.1-4.193,1.629-.793.3-1.615.524-2.4.84a1.583,1.583,0,0,0-.766.615c-.365.66-.615,1.381-.948,2.06a2.514,2.514,0,0,1-3.08,1.5q-1.256-.262-2.508-.542c-1.267-.286-1.827-.971-1.6-1.936.215-.9.96-1.227,2.251-.973.258.051.51.139.77.172.538.068,1.308.353,1.568.109.465-.438,1-1.325.836-1.8a10.9,10.9,0,0,0-1.831-3.3c-.318-.4-1.227-.32-1.964-.479-.363.817-.708,1.627-1.081,2.424-.466,1-1.238,1.358-2.056.992a1.525,1.525,0,0,1-.646-2.192c.365-.881.742-1.759,1.159-2.616A2.563,2.563,0,0,1,72.344,77c.032.007.064.017.1.027,1.375.429,2.656.644,3.754-.716A4.756,4.756,0,0,1,77.976,75.3a1.358,1.358,0,0,0,.892-1.262c.338-3.8.727-7.6,1.063-11.408a1.716,1.716,0,0,0-.307-1.071c-1.927-2.63-3.9-5.226-5.827-7.855a1.016,1.016,0,0,0-1.253-.438,20.082,20.082,0,0,1-2.416.5c-.631.085-.866.349-.947,1-.5,3.951-1.015,7.9-1.613,11.837a2.338,2.338,0,0,1-1.014,1.525c-1.006.539-2.051-.39-1.9-1.688.32-2.779.726-5.547,1.1-8.32.653-4.86,1.32-9.719,1.956-14.582a2.486,2.486,0,0,0-2.3-2.89,7.1,7.1,0,0,0-.887-.039q-18.533,0-37.067.01a4.73,4.73,0,0,0-1.732.283c-1.129.457-1.583,1.517-1.379,3.068.408,3.1.849,6.2,1.27,9.294q1.528,11.252,3.052,22.5c.115.848.2,1.7.388,2.535A2.377,2.377,0,0,0,31.3,80.312a9.021,9.021,0,0,0,1.181.062q13.542,0,27.084,0c2.495,0,3.2-.6,3.571-3.072.183-1.2.329-2.414.519-3.616.16-1.01.812-1.588,1.628-1.5a1.54,1.54,0,0,1,1.3,1.879c-.223,1.663-.417,3.334-.748,4.976a5.234,5.234,0,0,1-4.756,4.2c-1.4.1-2.823.019-4.393.019,0,.526,0,.906,0,1.286-.022,2.272.074,4.553-.092,6.815a10.506,10.506,0,0,1-8.7,9.673,2.354,2.354,0,0,0-.438.18H44.686a2.727,2.727,0,0,0-.454-.168,10.3,10.3,0,0,1-8.655-8.706,66.014,66.014,0,0,1-.21-7.79c-.007-.378,0-.757,0-1.245-1.443,0-2.729.073-4-.015a5.322,5.322,0,0,1-5.287-4.806c-1.026-7.168-1.968-14.349-2.948-21.524-.133-.976.016-2.232-.536-2.843s-1.811-.541-2.76-.77a2.031,2.031,0,0,1-.288-.066c-.623-.253-1-.027-1.394.509-1.822,2.5-3.72,4.951-5.52,7.469a2.925,2.925,0,0,0-.507,1.785c.272,3.413.678,6.815.952,10.229.093,1.159.42,1.975,1.612,2.333a2.372,2.372,0,0,1,1.267.727c.98,1.489,2.269,1,3.555.7.064-.015.126-.04.19-.053a2.538,2.538,0,0,1,3.1,1.474c.435.885.829,1.791,1.2,2.7a1.523,1.523,0,0,1-.672,2.18c-.836.351-1.57,0-2.042-1.01-.371-.791-.718-1.594-1.06-2.357-2.037.285-2.023.292-2.8,1.908-.211.438-.566.805-.8,1.234a1.1,1.1,0,0,0-.173.757c.21.614.519,1.2.812,1.84.944-.192,1.836-.4,2.738-.548a1.467,1.467,0,1,1,.615,2.856c-.954.251-1.922.45-2.888.653a2.541,2.541,0,0,1-3.08-1.514c-.332-.679-.589-1.4-.941-2.064a1.419,1.419,0,0,0-.675-.6c-1.027-.414-2.08-.765-3.119-1.152-1.129-.421-2.227-.944-3.383-1.268a5.566,5.566,0,0,1-4.163-4.855c-.358-3.339-.654-6.685-1-10.026C1.119,64.86,1.116,62.468,0,60.3V58.321A30.356,30.356,0,0,1,1.87,54.8c1.857-2.637,3.852-5.175,5.745-7.787a1.787,1.787,0,0,0,.275-1.3,10.309,10.309,0,0,1,.649-6.652,2.28,2.28,0,0,1,2.433-1.535c9.155.069,18.311.073,27.467.1h1.192v-3.67c-.469,0-.861.006-1.253,0-2.27-.041-4.545-.009-6.81-.143-4.335-.257-8.439-4.169-8.613-8.5-.211-5.259-.187-10.532-.108-15.8a8.834,8.834,0,0,1,3.9-7.407A28.491,28.491,0,0,1,31.241,0ZM31.089,30.843c.863.049,1.617.129,2.371.13q12.547.013,25.093,0c.493,0,.987-.074,1.479-.058.786.024.962-.354.959-1.088-.026-6.19-.011-12.38-.017-18.57,0-1.635-.482-2.11-2.128-2.111Q46,9.142,33.159,9.149c-1.633,0-2.117.5-2.117,2.127q0,9.285,0,18.57c0,.29.027.58.047,1M63.943,29.15a7.077,7.077,0,0,0,2.3-5.464q0-6.671,0-13.341c-.009-4.458-2.906-7.363-7.356-7.377-3.36-.011-6.721,0-10.081,0-5.238,0-10.477.038-15.715-.012-4.074-.04-7.172,2.906-7.237,6.454-.092,5-.065,10.009-.017,15.013a6.271,6.271,0,0,0,2.242,4.712V27.855q0-8.2,0-16.4c0-3.552,1.715-5.268,5.272-5.269q12.651,0,25.3,0c3.575,0,5.29,1.7,5.293,5.243q.006,8.2,0,16.4ZM38.332,83.394c0,.4,0,.718,0,1.04.029,2.434-.115,4.885.13,7.3a7.531,7.531,0,0,0,7.127,6.5,7.38,7.38,0,0,0,7.609-5.22,33.068,33.068,0,0,0,.512-6.148c.063-1.137.011-2.28.011-3.467ZM22.184,50.8c0-3.487-1.563-6.764-.334-10.283-3.485,0-6.9-.011-10.308.027-.205,0-.5.356-.594.606a6.319,6.319,0,0,0,4.445,8.246c2.216.58,4.491.937,6.791,1.4M70.158,40.514c1.272,3.578-.406,6.881-.292,10.285,2.227-.457,4.391-.854,6.532-1.352A6.3,6.3,0,0,0,81.071,41.2a1.111,1.111,0,0,0-.75-.656c-3.35-.044-6.7-.029-10.164-.029M9.7,49.192c-2.123,2.873-4.258,5.665-6.259,8.551a3.439,3.439,0,0,0-.352,2.251,2.943,2.943,0,0,0,2.365,2.488A3.026,3.026,0,0,0,8.8,61.347c2.175-2.848,4.3-5.735,6.438-8.61a.8.8,0,0,0,.074-.271A11.222,11.222,0,0,1,9.7,49.192M76.561,52.5c2.361,3.12,4.583,6.178,6.947,9.121a3.072,3.072,0,0,0,4.295.26,3.223,3.223,0,0,0,.685-4.346c-1.021-1.494-2.141-2.92-3.223-4.372-.974-1.309-1.955-2.614-2.981-3.986A10.945,10.945,0,0,1,76.561,52.5M4.133,65.207c.4,3.949.76,7.742,1.165,11.531a2.6,2.6,0,0,0,2.926,2.513,2.692,2.692,0,0,0,2.19-3.21c-.194-1.832-.359-3.667-.544-5.5-.19-1.884-.389-3.768-.592-5.734a6.706,6.706,0,0,1-5.144.4m78.6-.386c-.141,1.4-.27,2.64-.39,3.881-.246,2.55-.518,5.1-.721,7.651a2.558,2.558,0,0,0,2.782,2.91,2.7,2.7,0,0,0,2.377-2.712q.294-2.941.577-5.883c.169-1.784.325-3.569.5-5.472a6.69,6.69,0,0,1-5.122-.376M42.76,37.568h6.545v-3.58H42.76ZM11.7,80.9c.725.415,1.513,1.014,2.362.4a2.146,2.146,0,0,0,.735-1.537c0-.9-.771-1.241-1.49-1.461L11.7,80.9m68.621-.006-1.627-2.615c-.7.273-1.49.612-1.484,1.527a2.072,2.072,0,0,0,.7,1.467c.841.627,1.652.1,2.415-.378" transform="translate(0 0)" fill="#545da2"/>
      <path id="Path_56076" data-name="Path 56076" d="M178.076,252.264c-3.1,0-6.194.008-9.29,0-2.708-.009-4.082-1.368-4.093-4.061q-.021-4.941,0-9.882c.014-2.56,1.412-4,3.965-4.013q9.488-.04,18.976,0c2.533.012,3.96,1.5,3.973,4.034q.025,4.941,0,9.882c-.011,2.6-1.441,4.026-4.044,4.038-3.163.014-6.325,0-9.488,0m.127-2.966c3.093,0,6.187-.019,9.28.012.845.008,1.181-.286,1.174-1.146q-.042-4.886,0-9.772c.008-.879-.386-1.14-1.2-1.138q-9.329.023-18.659,0c-.846,0-1.163.314-1.154,1.168.032,3.224.042,6.449,0,9.673-.014.98.373,1.231,1.284,1.219,3.093-.04,6.186-.015,9.28-.016" transform="translate(-132.124 -187.966)" fill="#545da2"/>
      <path id="Path_56077" data-name="Path 56077" d="M231.329,74.935c1.417,0,2.834-.011,4.25,0,1.115.011,1.743.538,1.763,1.435.02.927-.641,1.516-1.791,1.522q-4.25.023-8.5,0c-1.08-.006-1.764-.591-1.79-1.452-.027-.9.672-1.494,1.818-1.5,1.417-.013,2.833,0,4.25,0" transform="translate(-180.727 -60.117)" fill="#545da2"/>
      <path id="Path_56078" data-name="Path 56078" d="M181.73,74.965a8.513,8.513,0,0,1,1.176.009,1.366,1.366,0,0,1,1.3,1.356,1.285,1.285,0,0,1-1.134,1.483,12.124,12.124,0,0,1-2.829.009,1.291,1.291,0,0,1-1.165-1.463,1.381,1.381,0,0,1,1.374-1.395,12.3,12.3,0,0,1,1.275-.008v.008" transform="translate(-143.675 -60.127)" fill="#545da2"/>
      <path id="Path_56079" data-name="Path 56079" d="M202.464,261.952c-1.876,0-3.752.008-5.628,0-1.161-.007-1.836-.557-1.846-1.466s.664-1.489,1.816-1.492q5.628-.015,11.257,0c1.172,0,1.836.548,1.845,1.463s-.661,1.487-1.815,1.495c-1.876.013-3.752,0-5.628,0" transform="translate(-156.44 -207.783)" fill="#545da2"/>
      <path id="Path_56080" data-name="Path 56080" d="M202.491,285.822c1.876,0,3.753-.01,5.629,0,1.14.008,1.747.5,1.784,1.4.038.929-.613,1.548-1.759,1.554q-5.678.03-11.356,0c-1.154-.006-1.812-.607-1.792-1.53s.667-1.419,1.865-1.425c1.876-.01,3.753,0,5.629,0" transform="translate(-156.446 -229.312)" fill="#545da2"/>
    </g>
  </g>
</svg>
