<svg xmlns="http://www.w3.org/2000/svg" xmlns:xlink="http://www.w3.org/1999/xlink" width="130" height="130" viewBox="0 0 130 130">
  <defs>
    <linearGradient id="linear-gradient" x1="0.5" x2="0.5" y2="1" gradientUnits="objectBoundingBox">
      <stop offset="0" stop-color="#fe5400"/>
      <stop offset="0.512" stop-color="#c9666a"/>
      <stop offset="1" stop-color="#711a98"/>
    </linearGradient>
    <clipPath id="clip-Innovative">
      <rect width="130" height="130"/>
    </clipPath>
  </defs>
  <g id="Innovative" clip-path="url(#clip-Innovative)">
    <g id="project-management" transform="translate(0 3.615)">
      <path id="Union_224" data-name="Union 224" d="M-10694.936-1374.418a8.331,8.331,0,0,1-8.5-8.149v-11.32a8.073,8.073,0,0,1-4.251-7.018v-5.806l-3.3,3.174a2.2,2.2,0,0,1-2.708.237l-5.87-3.87-1.469,6.7a2.107,2.107,0,0,1-2.081,1.617h-8.5a2.1,2.1,0,0,1-2.079-1.63l-1.468-6.7-5.871,3.881a2.193,2.193,0,0,1-2.71-.238l-6.375-6.111a1.974,1.974,0,0,1-.248-2.6l4.038-5.628-6.986-1.409a2.06,2.06,0,0,1-1.687-1.995v-8.149a2.059,2.059,0,0,1,1.671-1.995l6.985-1.406-4.038-5.63a1.974,1.974,0,0,1,.246-2.594l6.375-6.114a2.2,2.2,0,0,1,2.71-.235l5.884,3.887,1.466-6.694a2.109,2.109,0,0,1,2.081-1.63h.635c.032-.572.054-1.144.11-1.719,1.844-18.173,16.681-32.638,35.6-34.711a42.906,42.906,0,0,1,8.691,0l6.387-4.594a2.183,2.183,0,0,1,2.974.408l5.01,6.405a2.143,2.143,0,0,0,1.4.794,2.111,2.111,0,0,0,2.4-1.728l1.182-7.927a2.115,2.115,0,0,1,2.405-1.727l12.616,1.727h0a2.055,2.055,0,0,1,1.8,2.308l-1.18,7.925a1.963,1.963,0,0,0,.41,1.525,2.186,2.186,0,0,0,2.978.391l6.678-4.8a2.189,2.189,0,0,1,2.977.408l7.649,9.779a1.984,1.984,0,0,1-.424,2.853l-6.683,4.8a2.028,2.028,0,0,0-.829,1.341,2.055,2.055,0,0,0,1.806,2.305l8.266,1.131,0,0a2.056,2.056,0,0,1,1.8,2.308l-1.8,12.1v0a2.116,2.116,0,0,1-2.407,1.728l-8.266-1.131a2.089,2.089,0,0,0-2.124.977,1.933,1.933,0,0,0,.127,2.262l5.007,6.4a1.982,1.982,0,0,1-.424,2.853l-10.2,7.334a2.187,2.187,0,0,1-2.977-.408l-5.01-6.4a2.16,2.16,0,0,0-1.4-.8,2.114,2.114,0,0,0-2.4,1.73l-1.18,7.925a2.1,2.1,0,0,1-2.108,1.749,2.183,2.183,0,0,1-.3-.019l-12.624-1.73a2.051,2.051,0,0,1-1.8-2.305l1.18-7.925a1.983,1.983,0,0,0-.4-1.506,2.184,2.184,0,0,0-2.975-.41l-6.681,4.8a2.189,2.189,0,0,1-2.977-.408l-7.649-9.779a1.982,1.982,0,0,1,.424-2.853l6.68-4.8a2.016,2.016,0,0,0,.829-1.344,2.052,2.052,0,0,0-1.806-2.3l-8.265-1.134h0a2.054,2.054,0,0,1-1.8-2.305l1.806-12.1v0a2.112,2.112,0,0,1,2.4-1.727l8.268,1.134a2.146,2.146,0,0,0,2.124-.98,1.928,1.928,0,0,0-.126-2.262l-5.01-6.405a1.976,1.976,0,0,1-.405-1.509,2.243,2.243,0,0,1,.081-.221,36.4,36.4,0,0,0-30.368,16.16c-10.583,16.146-5.509,37.462,11.334,47.608a13.592,13.592,0,0,1,6.742,11.5v8.232a4.166,4.166,0,0,0,4.251,4.076h17a4.166,4.166,0,0,0,4.251-4.076v-8.062a13.908,13.908,0,0,1,6.855-11.739,35.718,35.718,0,0,0,4.476-3.282l2.837,3.037a41.035,41.035,0,0,1-5,3.668,9.908,9.908,0,0,0-4.918,8.316v8.062a8.065,8.065,0,0,1-4.248,7.018v11.32a8.331,8.331,0,0,1-8.5,8.149Zm-4.249-8.149a4.163,4.163,0,0,0,4.249,4.073h8.5a4.165,4.165,0,0,0,4.249-4.073v-2.038h-17Zm0-6.114h17v-4.073h-17Zm-31.828-19.339,1.115,5.08h5.05l1.114-5.088a4.014,4.014,0,0,1,.659-1.474,4.368,4.368,0,0,1,5.911-1.042l4.416,2.915,4.559-4.362a10.039,10.039,0,0,0-4.284-5.212,39.812,39.812,0,0,1-3.63-2.537,12.758,12.758,0,0,1-9.833,6.551,12.646,12.646,0,0,1-14.171-10.689,12.35,12.35,0,0,1,11.153-13.588,37.249,37.249,0,0,1-1.687-6.907l-.372,1.7a3.906,3.906,0,0,1-.658,1.471,4.366,4.366,0,0,1-5.909,1.047l-4.418-2.918-3.873,3.7,3.044,4.243a3.956,3.956,0,0,1,.65,1.458,4.078,4.078,0,0,1-3.276,4.832l-5.3,1.069v4.84l5.3,1.072a4.348,4.348,0,0,1,1.538.632,3.971,3.971,0,0,1,1.086,5.668l-3.042,4.23,3.873,3.706,4.416-2.91a4.362,4.362,0,0,1,1.535-.634,4.458,4.458,0,0,1,.877-.088A4.215,4.215,0,0,1-10731.013-1408.02Zm-4.364-20.1a8.05,8.05,0,0,0,5.112,10.411,8.6,8.6,0,0,0,10.861-4.9,38.626,38.626,0,0,1-7.89-10.891h-.1A8.47,8.47,0,0,0-10735.377-1428.117Zm58.528-16.508a6.157,6.157,0,0,1,5.406,6.915l-.88,5.908,8.413,1.152.861-5.917a6.077,6.077,0,0,1,2.485-4.024,6.562,6.562,0,0,1,8.927,1.223l3.735,4.772,6.8-4.888-3.735-4.775a5.93,5.93,0,0,1-1.212-4.532,6.338,6.338,0,0,1,7.215-5.185l6.162.842,1.209-8.062-6.162-.845a6.427,6.427,0,0,1-4.2-2.383,5.948,5.948,0,0,1,1.277-8.556l4.979-3.582-5.1-6.518-4.979,3.579a6.585,6.585,0,0,1-4.727,1.161,6.159,6.159,0,0,1-5.409-6.915l.88-5.906-8.413-1.153-.88,5.908a6.07,6.07,0,0,1-2.488,4.024,6.558,6.558,0,0,1-8.924-1.223l-3.735-4.775-6.8,4.891,3.746,4.777a5.915,5.915,0,0,1,1.212,4.535,6.334,6.334,0,0,1-7.215,5.182l-6.162-.842-1.2,8.065,6.165.842a6.438,6.438,0,0,1,4.2,2.386,5.946,5.946,0,0,1-1.276,8.556l-4.978,3.582,5.1,6.518,4.978-3.579a6.554,6.554,0,0,1,3.826-1.222A6.685,6.685,0,0,1-10676.849-1444.625Zm13.79,51.117v-14.878h4.251v14.878Zm9.266-14.3,2.721-3.266,12.751,10.624-2.721,3.266Zm-39.019,6.964v-6.375h4.251v6.375Zm.566-15.221a11.758,11.758,0,0,0-7.552-10.977,25.8,25.8,0,0,1-12.436-10.276,25.789,25.789,0,0,1,8.073-35.564l1.968,3.118A22.105,22.105,0,0,0-10711-1459.1a22.1,22.1,0,0,0,12.546,28.63,15.414,15.414,0,0,1,9.9,14.405Zm41.938-1.08v-4.249h14.877v4.249Zm-29.75-44.444a17,17,0,0,1,17-17,17.018,17.018,0,0,1,17,17,17,17,0,0,1-17,17A17,17,0,0,1-10680.058-1461.592Zm4.248,0a12.751,12.751,0,0,0,12.751,12.751,12.768,12.768,0,0,0,12.753-12.751,12.753,12.753,0,0,0-12.753-12.751A12.751,12.751,0,0,0-10675.81-1461.592Zm-77.021-.305,17-4.251,1.031,4.122-17,4.248Zm3.53-20.279,2.468-3.458,14.875,10.624-2.468,3.458Zm18.209-13.957,4.116-1.053,4.346,17-4.116,1.053Z" transform="translate(10755 1497.187)" fill="url(#linear-gradient)"/>
    </g>
  </g>
</svg>
