<svg xmlns="http://www.w3.org/2000/svg" xmlns:xlink="http://www.w3.org/1999/xlink" width="115" height="115" viewBox="0 0 115 115">
  <defs>
    <clipPath id="clip-DNS_Security">
      <rect width="115" height="115"/>
    </clipPath>
  </defs>
  <g id="DNS_Security" data-name="DNS Security" clip-path="url(#clip-DNS_Security)">
    <g id="Group_1606" data-name="Group 1606" transform="translate(7 7)">
      <path id="Path_56067" data-name="Path 56067" d="M101.237,68.6v9.687c-1.15.022-2.3.042-3.451.067-1.358.03-1.737.621-1.157,1.822.458.947.977,1.867,1.385,2.835A1.113,1.113,0,0,1,97.88,84q-1.969,2.08-4.05,4.052a1.122,1.122,0,0,1-.988.147c-1-.418-1.95-.951-2.931-1.413-1.083-.511-1.71-.111-1.725,1.1-.015,1.144,0,2.289,0,3.469H78.366c0-1.09,0-2.1,0-3.119-.006-1.689-.547-2.032-2.033-1.295a13.053,13.053,0,0,0-1.843.941,1.47,1.47,0,0,1-2.376-.409,6.005,6.005,0,0,0-6.276-2.616,26.8,26.8,0,0,1-3.712.029v6.544h1.118c2.8,0,5.6-.019,8.4.007a6.378,6.378,0,0,1,6.229,4.039c1.164,2.658.543,4.375-1.94,5.753H25.32c-2.466-1.363-3.037-3-1.983-5.664a6.516,6.516,0,0,1,6.273-4.127c2.4-.031,4.809-.007,7.214-.008h2.287V84.879H37.874q-10.475,0-20.951,0c-3.563,0-5.465-1.919-5.466-5.5q0-15.318.017-30.635a1.761,1.761,0,0,0-.819-1.617A25.218,25.218,0,0,1,.988,33.092a35.86,35.86,0,0,1-.973-5.216c-.072-.652.141-4.457.179-4.713C1.794,12.349,7.735,5.046,18.005,1.349A48.083,48.083,0,0,1,23.936,0h4.547a1.411,1.411,0,0,0,.354.147A26.073,26.073,0,0,1,48.438,12.5a1.512,1.512,0,0,0,1.1.529c3.623.039,7.247.005,10.871.041a1.478,1.478,0,0,0,1.371-.719c.994-1.394,2.072-2.728,3.063-4.124a3.878,3.878,0,0,1,3.449-1.719c5.3.035,10.608,0,15.912.026A.934.934,0,0,0,85.3,5.751,8.058,8.058,0,0,1,91.122.229c.213-.06.417-.152.626-.229h2.57c.242.08.482.169.727.238a8.156,8.156,0,0,1,5.716,5.208c.183.482.319.982.476,1.474V9.292a4.1,4.1,0,0,0-.17.457,8.143,8.143,0,0,1-15.814.681.8.8,0,0,0-.92-.636c-5.3.009-10.607-.007-15.91.032a1.664,1.664,0,0,0-1.1.605c-1.07,1.335-2.109,2.7-3.087,4.1a4.007,4.007,0,0,1-3.607,1.819c-3.03-.039-6.061-.011-9.091-.011H50.4l1.085,3.28H66.868v3.3H52.094l.2,3.191h1.265q15.366,0,30.732,0c3.555,0,5.5,1.941,5.5,5.489q0,13.686,0,27.373V60.21c1.108-.548,2.055-1.053,3.037-1.476a1.04,1.04,0,0,1,.918.081c1.547,1.473,3.049,2.995,4.579,4.517-.606,1.215-1.191,2.353-1.743,3.508-.514,1.076-.11,1.718,1.095,1.743,1.185.025,2.371.015,3.557.02M68.229,63.347c1.539-1.537,3.016-3.038,4.537-4.495a1.042,1.042,0,0,1,.907-.144c.733.284,1.424.676,2.131,1.029,2.244,1.121,2.563.919,2.563-1.625v-2.53l1.6-.113V36.014H21.288V71.73H65.36V68.586c1.227,0,2.345.014,3.462,0,1.27-.02,1.678-.667,1.131-1.792s-1.118-2.235-1.725-3.444M65.316,75.111H64q-21.1,0-42.207,0c-2.57,0-3.805-1.242-3.806-3.824q0-17.446,0-34.893,0-3.753,3.777-3.756,28.863,0,57.726,0c2.512,0,3.772,1.26,3.773,3.761q.006,8.945,0,17.891v1.159h3.294V54.394q0-11.318,0-22.636c0-1.88-.464-2.35-2.32-2.35H17.023c-1.865,0-2.33.465-2.33,2.338q0,23.773,0,47.545c0,1.846.506,2.35,2.346,2.351q12.158,0,24.316,0h1.133v-3.2h3.256v3.128H49.02V78.416h3.225v3.155h3.307V78.415h3.225v3.228c3.051,0,5.979-.064,8.9.032A1.943,1.943,0,0,0,69.9,80.31c.549-1.375.273-1.937-1.2-1.952-1.1-.011-2.209,0-3.383,0ZM81.709,58.753c-.026.317-.045.511-.058.707A4.277,4.277,0,0,1,75.4,63.189c-.388-.18-.754-.416-1.155-.556a.889.889,0,0,0-.69.035c-1.271.853-1.372,1.272-.711,2.617.073.147.15.293.217.443a4.244,4.244,0,0,1-3.653,6.08c-.252.017-.5.058-.731.084v3.183c.209.016.34.029.471.035a4.258,4.258,0,0,1,3.816,6.306c-.236.5-.483,1-.714,1.479,1.373,1.673,1.373,1.673,3.181.84.06-.027.118-.059.178-.084a4.265,4.265,0,0,1,5.97,3.171c.079.412.09.837.134,1.276h3.065A14.668,14.668,0,0,1,85.223,86c.926-2.494,3.625-3.393,6.228-2.113.686.337,1.245.828,2.046-.027.682-.728.894-1.26.291-2.069a3.6,3.6,0,0,1-.422-.889,4.278,4.278,0,0,1,3.127-5.716,13.387,13.387,0,0,1,1.4-.14V71.871c-.294-.025-.518-.047-.742-.063a4.129,4.129,0,0,1-4-4.653,16.232,16.232,0,0,1,.9-2.58,1.223,1.223,0,0,0-.132-.985c-1.059-1.233-1.08-1.215-2.567-.5-.118.057-.235.119-.355.171a4.25,4.25,0,0,1-6.037-3.4c-.046-.348-.091-.7-.145-1.11h-3.1Zm-6.636,39.14a3.209,3.209,0,0,0-3.5-3.193q-20.939,0-41.879,0c-.2,0-.4-.008-.592.009a3.091,3.091,0,0,0-2.863,3.185ZM36.054,26.067l-.763-6.414H16.95l-.693,6.414Zm-24.9,6.519c.351-1.466.351-2.965,1.05-3.985a5.719,5.719,0,0,0,.889-3.482c.005-.459.043-.92.093-1.377.148-1.359.31-2.717.471-4.113H4.217a23.018,23.018,0,0,0,0,12.958Zm23-16.3c-1.608-4.808-4.632-8.532-8.008-12.1-3.371,3.548-6.407,7.281-8.013,12.1ZM58.725,84.948H42.564v6.4H58.725ZM30.2,3.752c.21.261.3.39.41.508a32.251,32.251,0,0,1,6.819,11.456c.187.563.53.641,1.039.636,2.075-.02,4.151-.008,6.227-.008H46.68C44,9.959,36.852,4.55,30.2,3.752m-8.315.026c-5.632.149-15.4,7.708-16.188,12.563,2.8,0,5.6.019,8.4-.031.256,0,.6-.4.74-.7,1.043-2.12,1.906-4.342,3.1-6.368,1.127-1.909,2.593-3.618,3.948-5.467m71.143,9.274a4.885,4.885,0,1,0-4.845-4.929,4.885,4.885,0,0,0,4.845,4.929M39.3,26.034h9.861l-.984-6.381H38.64l.66,6.381M11.4,43.567V36H5.527A22.308,22.308,0,0,0,11.4,43.567" transform="translate(0)" fill="#545da2"/>
      <path id="Path_56068" data-name="Path 56068" d="M355.327,102.6V99.382h3.242c0,.934.03,1.844-.027,2.748-.01.169-.36.439-.565.452-.844.052-1.693.022-2.65.022" transform="translate(-285.079 -79.734)" fill="#545da2"/>
      <path id="Path_56069" data-name="Path 56069" d="M388.554,99.27h3.206c0,.948.03,1.858-.026,2.761-.01.171-.354.447-.557.46-.845.052-1.7.022-2.623.022Z" transform="translate(-311.737 -79.644)" fill="#545da2"/>
      <rect id="Rectangle_4107" data-name="Rectangle 4107" width="3.16" height="3.168" transform="translate(83.323 19.629)" fill="#545da2"/>
      <path id="Path_56070" data-name="Path 56070" d="M226.364,260.78h-3.321V258.4c0-2.339-.012-4.678.005-7.017a3.522,3.522,0,0,1,6.878-1.165c.754,2.14,1.446,4.3,2.17,6.452.1.292.229.573.344.858l.288-.047v-9.624H236.1V250.3c0,2.306.015,4.613-.006,6.919a3.519,3.519,0,0,1-6.849,1.213c-.774-2.167-1.469-4.362-2.2-6.542-.1-.289-.234-.564-.353-.846l-.32.046Z" transform="translate(-178.944 -198.781)" fill="#545da2"/>
      <path id="Path_56071" data-name="Path 56071" d="M140.352,254.306c0-1.02-.02-2.04,0-3.059a3.248,3.248,0,0,1,3.463-3.46c1.052-.014,2.106-.02,3.158.006a6.518,6.518,0,0,1,.113,13.033c-1.116.051-2.237.037-3.355.01a3.267,3.267,0,0,1-3.369-3.274c-.05-1.083-.009-2.171-.009-3.256Zm3.368-3.272v6.507c1.1,0,2.118.017,3.136,0a3.247,3.247,0,0,0,.262-6.488c-1.106-.084-2.223-.015-3.4-.015" transform="translate(-112.596 -198.79)" fill="#545da2"/>
      <path id="Path_56072" data-name="Path 56072" d="M315.484,247.973v3.2c-1.647,0-3.279-.026-4.908.015a8.652,8.652,0,0,0-1.536.312,10.5,10.5,0,0,0,1.258.948c1.037.569,2.12,1.054,3.163,1.612a3.63,3.63,0,0,1,1.962,4.122,3.673,3.673,0,0,1-3.617,2.806c-1.969.032-3.939.007-5.988.007v-3.3h2.864c.955,0,1.911.017,2.864-.014a2,2,0,0,0,.651-.279c-.152-.188-.265-.449-.462-.552-1.367-.719-2.774-1.367-4.125-2.114a3.409,3.409,0,0,1-1.819-3.643,3.466,3.466,0,0,1,2.512-3,1.811,1.811,0,0,1,.575-.124c2.168-.009,4.337-.006,6.605-.006" transform="translate(-245.309 -198.948)" fill="#545da2"/>
      <path id="Path_56073" data-name="Path 56073" d="M396.318,338.4a8.146,8.146,0,1,1-8.212-8.129,8.166,8.166,0,0,1,8.212,8.129m-8.1,4.917a4.877,4.877,0,1,0-4.95-4.827,4.892,4.892,0,0,0,4.95,4.827" transform="translate(-304.895 -264.98)" fill="#545da2"/>
      <path id="Path_56074" data-name="Path 56074" d="M464.241,36.3a1.605,1.605,0,0,1-1.632-1.6,1.628,1.628,0,0,1,1.6-1.639,1.658,1.658,0,0,1,1.64,1.61,1.627,1.627,0,0,1-1.612,1.631" transform="translate(-371.151 -26.521)" fill="#545da2"/>
    </g>
  </g>
</svg>
