<svg xmlns="http://www.w3.org/2000/svg" xmlns:xlink="http://www.w3.org/1999/xlink" width="130" height="130" viewBox="0 0 130 130">
  <defs>
    <linearGradient id="linear-gradient" x1="0.5" x2="0.5" y2="1" gradientUnits="objectBoundingBox">
      <stop offset="0" stop-color="#fe5400"/>
      <stop offset="0.512" stop-color="#c9666a"/>
      <stop offset="1" stop-color="#711a98"/>
    </linearGradient>
    <clipPath id="clip-Simplistic">
      <rect width="130" height="130"/>
    </clipPath>
  </defs>
  <g id="Simplistic" clip-path="url(#clip-Simplistic)">
    <g id="Group_506" data-name="Group 506" transform="translate(6.004 1.861)">
      <path id="Union_226" data-name="Union 226" d="M-11082.858-1396.216a4.211,4.211,0,0,1,4.214-4.213,4.213,4.213,0,0,1,4.213,4.213,4.213,4.213,0,0,1-4.213,4.213A4.211,4.211,0,0,1-11082.858-1396.216Zm29.964-6.787a23.038,23.038,0,0,1-6.787-16.389,23.033,23.033,0,0,1,6.787-16.389,23.029,23.029,0,0,1,16.39-6.79,23.023,23.023,0,0,1,16.389,6.79,23.024,23.024,0,0,1,6.79,16.389,23.029,23.029,0,0,1-6.79,16.389,23.021,23.021,0,0,1-16.389,6.787A23.027,23.027,0,0,1-11052.895-1403Zm-2.574-16.389a18.964,18.964,0,0,0,18.964,18.963,18.963,18.963,0,0,0,18.963-18.963,18.963,18.963,0,0,0-18.963-18.963A18.964,18.964,0,0,0-11055.469-1419.392Zm-59,10.534a10.549,10.549,0,0,1-10.537-10.534v-25.284a10.549,10.549,0,0,1,10.537-10.537h25.282a10.549,10.549,0,0,1,10.537,10.537v25.284a10.549,10.549,0,0,1-10.537,10.534Zm-6.323-35.819v25.284a6.323,6.323,0,0,0,6.323,6.321h25.282a6.323,6.323,0,0,0,6.323-6.321v-25.284a6.321,6.321,0,0,0-6.323-6.321h-25.282A6.321,6.321,0,0,0-11120.787-1444.677Zm56.055-5.791a8.333,8.333,0,0,1-4.576-7.1l-1.4-29.313a8.342,8.342,0,0,1,3.828-7.471,8.351,8.351,0,0,1,8.382-.458l26.208,13.206a8.345,8.345,0,0,1,4.624,7.067,8.344,8.344,0,0,1-3.825,7.527l-24.8,16.11a8.4,8.4,0,0,1-4.579,1.371A8.427,8.427,0,0,1-11064.732-1450.467Zm.143-40.347a4.177,4.177,0,0,0-1.915,3.736l1.4,29.313a4.215,4.215,0,0,0,6.5,3.334l24.8-16.107a4.215,4.215,0,0,0-.4-7.3l-26.209-13.206a4.194,4.194,0,0,0-1.9-.457A4.209,4.209,0,0,0-11064.59-1490.814Zm49.156,35.6a4.214,4.214,0,0,1,4.213-4.213,4.213,4.213,0,0,1,4.213,4.213,4.213,4.213,0,0,1-4.213,4.216A4.215,4.215,0,0,1-11015.434-1455.214Zm-84.282-27.39a4.215,4.215,0,0,1,4.213-4.216,4.216,4.216,0,0,1,4.216,4.216,4.215,4.215,0,0,1-4.216,4.213A4.214,4.214,0,0,1-11099.716-1482.6Z" transform="translate(11125 1507)" fill="url(#linear-gradient)"/>
    </g>
  </g>
</svg>
