<svg xmlns="http://www.w3.org/2000/svg" xmlns:xlink="http://www.w3.org/1999/xlink" width="130" height="130" viewBox="0 0 130 130">
  <defs>
    <linearGradient id="linear-gradient" x1="0.5" x2="0.5" y2="1" gradientUnits="objectBoundingBox">
      <stop offset="0" stop-color="#fe5400"/>
      <stop offset="0.512" stop-color="#c9666a"/>
      <stop offset="1" stop-color="#711a98"/>
    </linearGradient>
    <clipPath id="clip-Customer-centric">
      <rect width="130" height="130"/>
    </clipPath>
  </defs>
  <g id="Customer-centric" clip-path="url(#clip-Customer-centric)">
    <g id="target_1_" data-name="target (1)" transform="translate(6.246 7.177)">
      <path id="Union_225" data-name="Union 225" d="M-9999.318-1392.847l-26.966-25.675a2.311,2.311,0,0,1-.715-1.626,2.3,2.3,0,0,1,.645-1.653l15.944-16.551a2.334,2.334,0,0,1,1.655-.712h.016a2.334,2.334,0,0,1,1.618.657l3.278,3.183a33.327,33.327,0,0,1,5.979-6.417,24.6,24.6,0,0,1,22.95-4.857,37.44,37.44,0,0,0,10,1.329h18.292a8.474,8.474,0,0,1,6.618,2.959,8.881,8.881,0,0,1,.884,1.263l13.065-12.93a9.4,9.4,0,0,1,7.222-2.748,10.634,10.634,0,0,1,6.565,2.75c3.508,3.234,3.71,7.947.5,11.722l-18.752,22.062a15.371,15.371,0,0,1-2.949,2.677c-.025.018-.051.035-.076.05a20.892,20.892,0,0,1-11.414,2.939h-27.829a50,50,0,0,0-5.758.335l-3.148.352,1.374,1.336a2.334,2.334,0,0,1,.707,1.621,2.35,2.35,0,0,1-.659,1.668l-15.8,16.2a2.312,2.312,0,0,1-1.655.7A2.3,2.3,0,0,1-9999.318-1392.847Zm-22.094-27.422,23.627,22.5,12.59-12.917-23.489-22.794Zm26.471-17.789a28.8,28.8,0,0,0-5.539,6.092l14.487,14.059,6.92-.775a54.467,54.467,0,0,1,6.281-.365h27.832a16.447,16.447,0,0,0,8.886-2.187,10.832,10.832,0,0,0,2.03-1.849l18.753-22.064c2.169-2.549.86-4.434-.111-5.33-1.879-1.734-5.241-2.272-7.391-.123l-15.048,14.892a9.505,9.505,0,0,1-2.177,5.889,8.574,8.574,0,0,1-6.677,2.954h-15.921a2.311,2.311,0,0,1-2.312-2.313,2.311,2.311,0,0,1,2.313-2.31h15.921a3.93,3.93,0,0,0,3.153-1.324,5.009,5.009,0,0,0,1.082-3.208c0-1.681-.878-4.525-4.162-4.525h-18.292a42.188,42.188,0,0,1-11.233-1.5,22.175,22.175,0,0,0-5.934-.843A19.965,19.965,0,0,0-9994.941-1438.057Zm-4.364,27.746-.02-.093a2.311,2.311,0,0,1,1.721-2.778,2.309,2.309,0,0,1,2.778,1.721l.022.1a2.309,2.309,0,0,1-1.724,2.778,2.383,2.383,0,0,1-.528.06A2.317,2.317,0,0,1-9999.306-1410.311Zm46.119-48.776a5.576,5.576,0,0,1-3.286-1.069,5.559,5.559,0,0,1-3.284,1.069h-22.524a5.566,5.566,0,0,1-3.284-1.069,5.568,5.568,0,0,1-3.286,1.069h-22.525a5.6,5.6,0,0,1-5.6-5.6v-10.5a12.123,12.123,0,0,1,6.594-10.838,13.274,13.274,0,0,1-3.067-8.5,13.351,13.351,0,0,1,13.334-13.337,13.351,13.351,0,0,1,13.332,13.337,13.274,13.274,0,0,1-3.067,8.5,12.075,12.075,0,0,1,4.283,3.671,12.041,12.041,0,0,1,4.28-3.671,13.275,13.275,0,0,1-3.067-8.5,13.35,13.35,0,0,1,13.332-13.335,13.351,13.351,0,0,1,13.335,13.335,13.275,13.275,0,0,1-3.067,8.5,12.075,12.075,0,0,1,4.28,3.669,12.093,12.093,0,0,1,4.283-3.669,13.278,13.278,0,0,1-3.07-8.5,13.353,13.353,0,0,1,13.337-13.335,13.35,13.35,0,0,1,13.332,13.335,13.275,13.275,0,0,1-3.067,8.5,12.119,12.119,0,0,1,6.591,10.836v10.5a5.6,5.6,0,0,1-5.594,5.6Zm-.974-16.1v10.5a.974.974,0,0,0,.974.974h22.525a.975.975,0,0,0,.974-.974v-10.5a7.513,7.513,0,0,0-6.231-7.436,13.235,13.235,0,0,1-6,1.434,13.247,13.247,0,0,1-6.007-1.434A7.513,7.513,0,0,0-9954.16-1475.187Zm-29.093,0v10.5a.973.973,0,0,0,.972.974h22.524a.973.973,0,0,0,.974-.974v-10.5a7.513,7.513,0,0,0-6.23-7.436,13.235,13.235,0,0,1-6,1.434,13.247,13.247,0,0,1-6.007-1.434A7.511,7.511,0,0,0-9983.253-1475.187Zm-29.1,0v10.5a.974.974,0,0,0,.974.974h22.525a.973.973,0,0,0,.974-.974v-10.5a7.511,7.511,0,0,0-6.23-7.436,13.242,13.242,0,0,1-6,1.434,13.235,13.235,0,0,1-6-1.434A7.512,7.512,0,0,0-10012.351-1475.187Zm61.716-19.336a8.722,8.722,0,0,0,8.712,8.712,8.721,8.721,0,0,0,8.71-8.712,8.719,8.719,0,0,0-8.71-8.709A8.72,8.72,0,0,0-9950.635-1494.524Zm-29.095,0a8.721,8.721,0,0,0,8.712,8.712,8.721,8.721,0,0,0,8.709-8.712,8.719,8.719,0,0,0-8.709-8.709A8.719,8.719,0,0,0-9979.729-1494.524Zm-29.1,0a8.722,8.722,0,0,0,8.712,8.712,8.723,8.723,0,0,0,8.712-8.712,8.721,8.721,0,0,0-8.712-8.709A8.72,8.72,0,0,0-10008.825-1494.524Z" transform="translate(10027 1507.857)" fill="url(#linear-gradient)"/>
    </g>
  </g>
</svg>
