<svg xmlns="http://www.w3.org/2000/svg" xmlns:xlink="http://www.w3.org/1999/xlink" width="115" height="115" viewBox="0 0 115 115">
  <defs>
    <clipPath id="clip-SSL">
      <rect width="115" height="115"/>
    </clipPath>
  </defs>
  <g id="SSL" clip-path="url(#clip-SSL)">
    <g id="Group_1608" data-name="Group 1608" transform="translate(18 5)">
      <path id="Path_56081" data-name="Path 56081" d="M75.309,105.621H3.92A6,6,0,0,1,0,101.7V50.129c1.06-3.5,3.7-4.381,7.045-4.021,0-4.223-.036-8.24.015-12.257A37.675,37.675,0,0,1,7.419,28.1C9.68,14.676,17.328,5.775,30.216,1.455A58.563,58.563,0,0,1,37.139,0H42.09c.81.127,1.619.267,2.431.378A32.63,32.63,0,0,1,72.206,31.731c.053,4.4.015,8.8.019,13.2,0,.36,0,.719,0,1.143.509,0,.852.021,1.191,0,3.554-.258,5.956,2.128,5.907,5.87-.129,9.9-.044,19.8-.044,29.7q0,9.331,0,18.663a4.9,4.9,0,0,1-3.719,5.157,1.163,1.163,0,0,0-.249.167M69.734,85.109c0,.823.021,1.6,0,2.385a3.241,3.241,0,0,1-3.2,3.255c-2.371.05-4.744.031-7.117.01a1.525,1.525,0,0,1-1.7-1.538c0-.949.655-1.537,1.784-1.545,2.028-.013,4.057,0,6.086-.006.329,0,.657-.029.965-.043v-25.1H28.324a8.319,8.319,0,0,1-1.03-.02,1.519,1.519,0,0,1-.244-2.97,4.514,4.514,0,0,1,1.224-.1q18.721-.007,37.442,0c.241,0,.482-.007.722.005a3.315,3.315,0,0,1,3.3,3.388c.01.428,0,.857,0,1.247h6.451c0-4.132,0-8.187,0-12.243,0-2.135-.538-2.669-2.693-2.669q-11.6,0-23.208,0-22.279,0-44.559,0c-2.057,0-2.629.581-2.63,2.64q0,5.621,0,11.241v1.028H9.556c0-.526-.027-.973,0-1.416a3.272,3.272,0,0,1,3.266-3.2c2.406-.053,4.813-.033,7.22-.008a1.59,1.59,0,0,1,1.747,1.617c-.041.893-.7,1.455-1.77,1.463-2.063.015-4.126,0-6.189.007-.362,0-.725.033-1.111.052V87.674H50.645c.241,0,.481,0,.722,0,1.288.008,2.025.571,2.023,1.541s-.744,1.55-2.025,1.551q-19.082,0-38.164,0a3.344,3.344,0,0,1-3.652-3.657c-.008-.645,0-1.291,0-2h-6.4c-.019.344-.051.644-.051.944q0,7.064,0,14.129c0,1.7.661,2.345,2.393,2.345q34.141,0,68.283,0c1.79,0,2.409-.618,2.411-2.42q.009-7.013,0-14.026c0-.3-.029-.606-.047-.971ZM60.175,46.027V44.8c0-3.85.03-7.7-.016-11.551a29.837,29.837,0,0,0-.342-4.309C58.135,18.355,47.424,10.585,36.874,12.257A20.456,20.456,0,0,0,19.154,32.931c-.011,4.022,0,8.044,0,12.066,0,.332.031.663.05,1.03Zm8.914,0c.016-.338.04-.605.039-.873,0-4.4.04-8.8-.031-13.2a27.675,27.675,0,0,0-.506-4.912A29.324,29.324,0,0,0,28.265,5.449C17.522,10.023,11.4,18.458,10.352,30.143c-.464,5.151-.155,10.371-.192,15.56a.857.857,0,0,0,.1.278h5.793V44.771c0-3.953-.054-7.908.025-11.859a27.223,27.223,0,0,1,.542-5.417,23.56,23.56,0,0,1,46.5,3.263c.255,4.662.107,9.346.142,14.02,0,.4,0,.8,0,1.243ZM9.506,67.32H3.168v5.66H9.506Zm66.6,0H69.81v5.691H76.1ZM3.145,81.865H9.489V76.207H3.145Zm66.633.019h6.33V76.212h-6.33Z" fill="#545da2"/>
      <path id="Path_56082" data-name="Path 56082" d="M116.033,340.226A6.243,6.243,0,0,1,111.975,339a2.315,2.315,0,0,1-.847-1.417,1.807,1.807,0,0,1,.737-1.326c.241-.172.925.011,1.239.255a4.309,4.309,0,0,0,3.291,1.173,1.959,1.959,0,0,0,1.888-1.343,1.836,1.836,0,0,0-.9-2.211c-1.068-.614-2.2-1.122-3.291-1.687a4.252,4.252,0,0,1-2.631-4.367,3.684,3.684,0,0,1,2.158-3.266,7.6,7.6,0,0,1,6.2-.111,1.222,1.222,0,0,1,.833,1.794c-.316.772-.8.966-1.635.68a10.577,10.577,0,0,0-2.871-.579,1.669,1.669,0,0,0-1.859,1.312c-.207.958.448,1.464,1.172,1.838,1.065.55,2.185,1,3.239,1.566a4.513,4.513,0,0,1,2.5,3.993c.136,3.022-1.858,4.924-5.158,4.928" transform="translate(-88.202 -257.232)" fill="#545da2"/>
      <path id="Path_56083" data-name="Path 56083" d="M177.2,340.267a6.51,6.51,0,0,1-4.146-1.288,1.553,1.553,0,0,1-.726-1.859c.385-1.041,1.117-1.3,1.967-.591a4.144,4.144,0,0,0,3.278,1.191,1.962,1.962,0,0,0,1.887-1.339,1.815,1.815,0,0,0-.892-2.208c-1.087-.645-2.255-1.153-3.376-1.742a4.213,4.213,0,0,1-2.583-3.994,3.8,3.8,0,0,1,2.445-3.716,7.826,7.826,0,0,1,5.828-.039,1.3,1.3,0,0,1,1.012,1.647c-.212.905-.8,1.145-1.691.874a11.727,11.727,0,0,0-2.874-.572,1.638,1.638,0,0,0-1.849,1.3c-.192.961.43,1.471,1.161,1.847,1.1.563,2.251,1.02,3.326,1.62a4.3,4.3,0,0,1,2.34,3.43c.347,3.371-1.6,5.439-5.106,5.436" transform="translate(-136.7 -257.272)" fill="#545da2"/>
      <path id="Path_56084" data-name="Path 56084" d="M240.2,338.238c1.685,0,3.226.035,4.764-.013.92-.029,1.366.362,1.359,1.247s-.483,1.247-1.388,1.228c-1.991-.044-3.983,0-5.974-.02-1.345-.014-1.581-.259-1.582-1.557q-.007-6.386,0-12.772c0-1.15.344-1.473,1.472-1.453,1.056.019,1.346.325,1.347,1.457,0,3.911,0,7.823,0,11.883" transform="translate(-188.406 -257.874)" fill="#545da2"/>
    </g>
  </g>
</svg>
