<svg xmlns="http://www.w3.org/2000/svg" xmlns:xlink="http://www.w3.org/1999/xlink" width="115" height="115" viewBox="0 0 115 115">
  <defs>
    <clipPath id="clip-DDoS_Mitigation">
      <rect width="115" height="115"/>
    </clipPath>
  </defs>
  <g id="DDoS_Mitigation" data-name="DDoS Mitigation" clip-path="url(#clip-DDoS_Mitigation)">
    <path id="Union_223" data-name="Union 223" d="M27.306,101l-1.334-.259Q10.833,97.81,6.641,83.015a1.352,1.352,0,0,0-.976-1.044A8.193,8.193,0,0,1,.3,76c-.105-.41-.2-.824-.3-1.236V7.693a6.026,6.026,0,0,0,.188-.647,8.082,8.082,0,0,1,4.133-5.9A21.648,21.648,0,0,1,7.321,0H85.679c.182.063.36.141.546.187A8.349,8.349,0,0,1,92.72,6.569c.116.435.188.881.28,1.321v9.074a2.36,2.36,0,0,1-2.463,1.372q-38.188-.031-76.375-.017a5.449,5.449,0,0,1-.985-.045,1.682,1.682,0,0,1-1.424-1.748A1.661,1.661,0,0,1,13.37,14.97c.361-.026.725-.013,1.088-.013H89.567c0-1.231.009-2.371,0-3.511-.013-1.216.043-2.44-.087-3.644A4.969,4.969,0,0,0,84.6,3.366c-.165-.007-.33,0-.5,0H67.563q-29.323,0-58.646-.006A4.874,4.874,0,0,0,4.16,5.941a7.412,7.412,0,0,0-.7,3.212Q3.4,32.578,3.433,56q0,8.778,0,17.556a4.958,4.958,0,0,0,2.35,4.682C6.662,65.166,13.107,56.461,26.345,54.4,37.31,52.7,45.4,57.855,50.871,67.419c.838-.853,1.722-1.689,2.527-2.593a1.4,1.4,0,0,0-.07-2.052c-2.989-3.018-5.985-6.03-9.048-8.971a2.321,2.321,0,0,0-1.722-.291c-1.162.18-1.98-.162-2.261-1.157a1.677,1.677,0,0,1,1.312-2.09,4.828,4.828,0,0,1,5.115,1.164c1.045,1,2.019,2.068,3.063,3.145.33-.251.559-.423.785-.6a6.25,6.25,0,0,1,6.952-.784,33.745,33.745,0,0,1,3.354,1.887,6.822,6.822,0,0,0,8.517-.444,6.52,6.52,0,0,1,.722-.518,1.65,1.65,0,0,1,2.206.427A1.623,1.623,0,0,1,72.1,56.78c-3.307,2.732-7.295,4.076-11.623,1.895-1.438-.725-2.783-1.633-4.222-2.356a2.944,2.944,0,0,0-3.94.692c1,.988,2,1.975,3,2.97,2.455,2.453,2.471,5.256.041,7.7-1.23,1.238-2.46,2.476-3.71,3.694-1.3,1.271-2.528,1-3.194-.685A19.922,19.922,0,0,0,32.794,57.716c-10.4-2-21.312,5.577-23.094,16.009A20.16,20.16,0,1,0,49.488,80.17c.2-1.694.8-2.4,1.97-2.281,1.15.112,1.574.92,1.388,2.65-1.048,9.785-9.312,18.484-19.063,20.072-.71.116-1.415.259-2.123.39Zm37.34-18.531c-1.262,0-1.986-.641-1.977-1.69s.737-1.664,2.011-1.665q5.569-.005,11.139,0h8.044c3.66,0,5.7-2.02,5.7-5.662q.007-22.229,0-44.458c0-.262,0-.526,0-.789.007-1.4.349-2.03,1.278-2.257,1.125-.275,1.678.449,2.155,1.279V74.764q-.152.614-.3,1.229a8.348,8.348,0,0,1-8.174,6.466q-4.41.025-8.822.021Q70.173,82.48,64.646,82.469Zm-47.836-6.2a2,2,0,0,1-1.552-1.827c.5-1.235.928-2.511,1.532-3.7a13.215,13.215,0,0,1,4.31-4.905,1.678,1.678,0,0,1,2.439.318,1.641,1.641,0,0,1-.417,2.344,11.5,11.5,0,0,0-4.392,6.453,1.645,1.645,0,0,1-1.919,1.312Zm12.463-9.772a1.687,1.687,0,1,1,0-3.359,1.694,1.694,0,1,1,0,3.359Zm48.983-5.778a11.556,11.556,0,0,1-1.993-2.037,2.115,2.115,0,0,1-.2-1.708,1.305,1.305,0,0,1,.413-.513,1.7,1.7,0,0,1,1.926-.205,1.128,1.128,0,0,1,.182.128,22.591,22.591,0,0,1,2.025,2.014,1.644,1.644,0,0,1-.115,2.236,1.673,1.673,0,0,1-1.17.5A1.609,1.609,0,0,1,78.257,60.715Zm-1.522-9.027a2.129,2.129,0,0,1-1.477-.875,1.912,1.912,0,0,1,.121-1.7,11.946,11.946,0,0,1,2.428-2.431,2.044,2.044,0,0,1,1.721-.141,1.015,1.015,0,0,1,.282.184,1.639,1.639,0,0,1,.281,2.044c-.778,1.342-2.49,2.92-3.292,2.92A.537.537,0,0,1,76.735,51.688Zm-8.215-.809a13.143,13.143,0,0,1-2.441-2.405,1.428,1.428,0,0,1,.163-1.905,1.355,1.355,0,0,1,1.85-.425,27.417,27.417,0,0,1,2.727,2.652c.14.143.128.431.166.57a1.763,1.763,0,0,1-1.671,1.771A1.351,1.351,0,0,1,68.52,50.879ZM26.878,41.026a1.711,1.711,0,0,1-1.913-1.885c-.027-1.936-.007-3.872-.008-5.808,0-1.8-.012-3.609,0-5.414.012-1.421.633-2.034,2.059-2.05,1.218-.013,2.436-.025,3.654,0a5.934,5.934,0,0,1,5.977,5.106,18.46,18.46,0,0,1-.051,5.184,5.877,5.877,0,0,1-5.772,4.857c-.637.017-1.276.023-1.913.023C28.236,41.043,27.557,41.036,26.878,41.026Zm1.53-11.752v8.387c.829,0,1.584.036,2.335-.008A2.716,2.716,0,0,0,33.4,35.007a28.04,28.04,0,0,0,0-3.145A2.63,2.63,0,0,0,31,29.292a8.412,8.412,0,0,0-.96-.048C29.506,29.244,28.966,29.275,28.409,29.275ZM12.05,41.03c-1.741,0-2.279-.547-2.284-2.32s0-3.551,0-5.326c0-1.808-.013-3.617,0-5.425.015-1.488.626-2.1,2.124-2.086.363,0,.728,0,1.093,0a24.431,24.431,0,0,1,3.64.166,5.9,5.9,0,0,1,4.945,5.709q.047,1.675,0,3.353a6.078,6.078,0,0,1-5.862,5.916c-.521.019-1.042.024-1.562.024C13.448,41.042,12.749,41.032,12.05,41.03Zm1.145-3.375c.889,0,1.682.05,2.466-.011a2.677,2.677,0,0,0,2.532-2.565c.051-1.082.045-2.17,0-3.252A2.493,2.493,0,0,0,16.233,29.4a24.727,24.727,0,0,0-3.039-.211Zm45.57,3.365a3.76,3.76,0,0,1-3.586-3.739,1.64,1.64,0,0,1,1.465-1.7,1.514,1.514,0,0,1,1.779,1.21c.159.757.533.926,1.226.889.393-.021.788-.014,1.184-.006a12.349,12.349,0,0,0,1.581-.038c.4-.044.758-.434,1.137-.667-.278-.349-.484-.857-.846-1.02-1.5-.673-3.049-1.231-4.572-1.85a4.252,4.252,0,0,1-2.9-4.891,4.3,4.3,0,0,1,4.515-3.343c1.154,0,2.309-.032,3.461.01a3.773,3.773,0,0,1,3.727,3.507,1.7,1.7,0,0,1-1.409,1.948,1.641,1.641,0,0,1-1.87-1.361c-.138-.547-.378-.765-.943-.748-.408.012-.816.007-1.224,0-.614-.008-1.229-.016-1.838.037-.376.033-.722.408-1.082.627.263.358.448.886.8,1.045,1.557.7,3.168,1.284,4.75,1.936a4.188,4.188,0,0,1,2.745,4.87,4.258,4.258,0,0,1-4.347,3.29c-.561,0-1.121,0-1.681,0v-.007c-.434,0-.869.012-1.3.012C59.279,41.037,59.021,41.032,58.765,41.019Zm-13.258,0a5.905,5.905,0,0,1-5.534-5.657c-.021-.656,0-1.313,0-1.97l-.076-.005a22.51,22.51,0,0,1,.25-2.931,5.855,5.855,0,0,1,5.884-4.582,5.769,5.769,0,0,1,5.638,5.09,23.491,23.491,0,0,1-.02,5.1,5.746,5.746,0,0,1-5.795,4.961C45.736,41.029,45.622,41.025,45.507,41.019Zm.255-11.772a2.551,2.551,0,0,0-2.414,2.417c-.037.589-.006,1.181,0,1.771,0,.623-.039,1.249.008,1.869a2.536,2.536,0,0,0,2.466,2.359,2.43,2.43,0,0,0,2.506-2.177,24.884,24.884,0,0,0,.008-4.024,2.434,2.434,0,0,0-2.447-2.218C45.845,29.244,45.8,29.245,45.762,29.247ZM14.825,10.935c-1.3,0-2.1-.657-2.09-1.7s.825-1.68,2.122-1.676,2.1.664,2.09,1.709-.8,1.663-2.11,1.663Zm8.49-1.678c0-1.081.754-1.694,2.082-1.694,1.3,0,2.1.642,2.1,1.693s-.776,1.679-2.1,1.679C24.058,10.935,23.314,10.336,23.315,9.257ZM35.9,10.934c-1.3-.009-2.086-.666-2.059-1.719s.827-1.664,2.141-1.652,2.063.649,2.041,1.734c-.022,1.068-.748,1.637-2.088,1.637Z" transform="translate(11 7)" fill="#545da2"/>
  </g>
</svg>
