<svg xmlns="http://www.w3.org/2000/svg" xmlns:xlink="http://www.w3.org/1999/xlink" width="115" height="115" viewBox="0 0 115 115">
  <defs>
    <clipPath id="clip-Media_Security">
      <rect width="115" height="115"/>
    </clipPath>
  </defs>
  <g id="Media_Security" data-name="Media Security" clip-path="url(#clip-Media_Security)">
    <g id="Group_1610" data-name="Group 1610" transform="translate(3 17)">
      <path id="Path_56089" data-name="Path 56089" d="M0,130.53a3.5,3.5,0,0,1,3.85-2.174c.875.077,1.763.013,2.739.013.02-.462.051-.839.051-1.217,0-3.875-.038-7.751.013-11.626a10.085,10.085,0,0,1,10.159-10.159,9.548,9.548,0,0,1,6.746,2.727,2.549,2.549,0,0,0,1.969.771q28.314-.025,56.628-.012c2.455,0,3.909.958,4.368,2.906a6.109,6.109,0,0,1,.109,1.374c.009,3.12,0,6.241,0,9.508.449-.239.785-.406,1.109-.593,5.443-3.142,10.875-6.306,16.34-9.409a5.734,5.734,0,0,1,2.49-.747c1.442-.061,2.126,1.048,2.68,2.2v41.618c-.485.946-.94,1.9-2.112,2.215a3.816,3.816,0,0,1-3.026-.655q-8.162-4.721-16.329-9.435c-.329-.19-.671-.357-1.152-.612v1.162q0,4.054,0,8.108c0,3.147-1.39,4.526-4.561,4.526H31.843c-.47,1.977-1.507,3.318-3.591,3.443-1.417.084-2.844.042-4.265.014a1.53,1.53,0,0,1-1.66-1.558,1.588,1.588,0,0,1,1.626-1.619c.637-.041,1.279-.012,1.919-.013,2.722,0,2.722,0,2.711-2.687-.006-1.352-.017-1.367-1.385-1.368q-9.759,0-19.518,0c-2.808,0-2.761,0-2.809,2.829-.017,1.03.358,1.256,1.3,1.244,3.341-.045,6.684-.031,10.026-.009a1.606,1.606,0,0,1,1.8,1.658c-.029.948-.675,1.526-1.8,1.529-3.626.012-7.253.029-10.879-.01A3.629,3.629,0,0,1,1.7,160.883c-.031-.924-.014-1.849-.008-2.773a3.752,3.752,0,0,1,4.036-4.073c2.489-.013,4.978,0,7.466,0h1.891v-7.292c-.279-.067-.514-.138-.755-.18C7.526,145.369,3,141.481.707,134.986.415,134.16.233,133.3,0,132.451V130.53m31.928,27.292H81.913c1.52,0,1.521,0,1.521-1.544q0-21.333,0-42.666c0-1.552,0-1.556-1.511-1.556q-27.248,0-54.5,0c-.369,0-.738.036-1.046.052.89,5.444.156,10.817.509,16.1.093.069.121.109.149.109,1.171.022,2.342.018,3.512.065a2.951,2.951,0,0,1,2.887,3.36,16.848,16.848,0,0,1-12.519,14.471c-.819.21-1.659.342-2.511.515v7.3h8.474c3.216,0,4.115.665,5.046,3.788M106,115.22c-2.313,1.331-4.507,2.622-6.733,3.857a1.4,1.4,0,0,0-.825,1.425c.032,4.872.018,9.744.015,14.616a8.455,8.455,0,0,1-.042,1.171,1.565,1.565,0,0,1-3.09.063,6.374,6.374,0,0,1-.064-1.168q-.006-6.241-.005-12.482c0-.366-.039-.731-.068-1.245-2.835,1.639-5.513,3.166-8.157,4.749a1.3,1.3,0,0,0-.376.975c-.023,5.157-.006,10.313-.03,15.47a1.234,1.234,0,0,0,.714,1.253c2.016,1.123,4.005,2.3,6.007,3.447.571.328,1.15.642,1.914,1.068,0-1.558-.006-2.9,0-4.236.008-1.467.529-2.187,1.579-2.2,1.071-.017,1.611.689,1.618,2.15.008,1.743.035,3.486-.014,5.227a1.375,1.375,0,0,0,.813,1.431c2.021,1.115,4.006,2.3,6.008,3.446.226.13.475.219.738.338Zm-96,9.151H23.51c0-3.354.166-6.63-.047-9.88a6.644,6.644,0,0,0-6.5-5.926c-3.359-.113-6.592,2.253-6.894,5.569-.308,3.371-.068,6.793-.068,10.237m-6.669,7.248c.349,6.721,6.969,12.249,14.207,11.911,6.426-.3,12.732-6.278,12.527-11.9H26.726a10.229,10.229,0,0,1-9.976,8.4q-7.168.025-10.047-8.412Zm6.64-3.887c-.618,3.529.58,6.495,3.237,8.113a6.864,6.864,0,0,0,7.616-.388,7.447,7.447,0,0,0,2.608-7.725Z" transform="translate(0 -82.882)" fill="#545da2"/>
      <path id="Path_56090" data-name="Path 56090" d="M185.5,0a25.434,25.434,0,0,1,18.235,7.785c.248.251.635.541.64.818a3.3,3.3,0,0,1-.331,1.835,1.317,1.317,0,0,1-1.915.2,6.753,6.753,0,0,1-.929-.876,22.23,22.23,0,0,0-31.534.061c-1.2,1.216-2,1.4-2.81.66-.839-.775-.688-1.691.543-2.908A25.438,25.438,0,0,1,185.5,0" transform="translate(-130.839)" fill="#545da2"/>
      <path id="Path_56091" data-name="Path 56091" d="M220.215,59.4a12.7,12.7,0,0,1,8.7,3.8c.9.9.983,1.8.279,2.522s-1.6.627-2.519-.232c-4.122-3.863-9.492-3.853-13.661.026-.906.843-1.839.911-2.521.182-.665-.711-.577-1.574.251-2.445a13.125,13.125,0,0,1,9.466-3.856" transform="translate(-165.233 -46.724)" fill="#545da2"/>
      <path id="Path_56092" data-name="Path 56092" d="M202.749,33a15.876,15.876,0,0,0-11.274,4.522c-.232.22-.441.467-.684.672a1.555,1.555,0,0,1-2.207-.015,1.465,1.465,0,0,1-.03-2.2,30.179,30.179,0,0,1,4.017-3.305,18.379,18.379,0,0,1,12.02-2.774c1.086.1,1.715.744,1.68,1.682-.038.978-.755,1.548-1.919,1.509-.533-.018-1.064-.063-1.6-.1" transform="translate(-147.94 -23.447)" fill="#545da2"/>
      <path id="Path_56093" data-name="Path 56093" d="M237.087,89.182a6.321,6.321,0,0,1,4.5,1.872,1.6,1.6,0,1,1-2.181,2.328c-1.657-1.372-3-1.37-4.667.009a1.6,1.6,0,1,1-2.161-2.343,6.316,6.316,0,0,1,4.511-1.865" transform="translate(-182.448 -70.152)" fill="#545da2"/>
      <path id="Path_56094" data-name="Path 56094" d="M292.944,41.369a5.709,5.709,0,0,1,1.187.506c1.246.991,2.5,1.973,3.674,3.05a1.528,1.528,0,0,1,.1,2.353,1.621,1.621,0,0,1-2.365-.122q-1.613-1.38-3.281-2.695a1.5,1.5,0,0,1-.59-1.953c.258-.487.863-.789,1.272-1.139" transform="translate(-229.299 -32.541)" fill="#545da2"/>
      <path id="Path_56095" data-name="Path 56095" d="M188.852,192.238c0-3.625-.011-7.249,0-10.874.012-2.925,2.014-4.079,4.568-2.625q9.392,5.346,18.767,10.721c2.705,1.551,2.728,3.822.045,5.364q-9.416,5.411-18.855,10.781c-2.5,1.421-4.509.258-4.523-2.6-.018-3.589,0-7.178,0-10.767m3.259,10.408,18.35-10.489-18.35-10.484Z" transform="translate(-148.549 -140.105)" fill="#545da2"/>
      <path id="Path_56096" data-name="Path 56096" d="M65.117,170.357c-.636,0-1.275.032-1.909-.006a1.611,1.611,0,0,1-1.67-1.675,1.557,1.557,0,0,1,1.7-1.507c1.272-.022,2.546-.025,3.818,0a1.524,1.524,0,0,1,1.66,1.537,1.569,1.569,0,0,1-1.585,1.638c-.668.047-1.343.009-2.015.01" transform="translate(-48.405 -131.484)" fill="#545da2"/>
      <path id="Path_56097" data-name="Path 56097" d="M65.061,142.475c-.672,0-1.346.039-2.015-.009a1.487,1.487,0,0,1-1.489-1.5A1.509,1.509,0,0,1,63,139.316c1.411-.065,2.829-.061,4.241,0a1.582,1.582,0,0,1-.06,3.16c-.705.039-1.414.008-2.121.008v0" transform="translate(-48.417 -109.55)" fill="#545da2"/>
    </g>
  </g>
</svg>
