<svg xmlns="http://www.w3.org/2000/svg" xmlns:xlink="http://www.w3.org/1999/xlink" width="130" height="130" viewBox="0 0 130 130">
  <defs>
    <linearGradient id="linear-gradient" x1="0.5" x2="0.5" y2="1" gradientUnits="objectBoundingBox">
      <stop offset="0" stop-color="#fe5400"/>
      <stop offset="0.512" stop-color="#c9666a"/>
      <stop offset="1" stop-color="#711a98"/>
    </linearGradient>
    <clipPath id="clip-Vendor_Agnostic">
      <rect width="130" height="130"/>
    </clipPath>
  </defs>
  <g id="Vendor_Agnostic" data-name="Vendor Agnostic" clip-path="url(#clip-Vendor_Agnostic)">
    <g id="computer" transform="translate(6.246 12.357)">
      <path id="Union_227" data-name="Union 227" d="M-10309.816-1406.931v-29.156h13.269v-12.958h-7.734c-.923,5.485-6.444,9.72-13.114,9.72h-41.7c-7.313,0-13.269-5.088-13.269-11.34h-3.791v14.578h11.374c3.134,0,5.686,2.181,5.686,4.861v14.578h3.791v4.859c0,2.68-2.552,4.859-5.688,4.859h-30.325c-3.134,0-5.686-2.179-5.686-4.859v-4.859h3.791v-14.578c0-2.68,2.553-4.861,5.687-4.861h7.582V-1453.9h8.175a10.671,10.671,0,0,1,1.843-3.241h-13.809v-8.1h-7.583c-3.134,0-5.686-2.179-5.686-4.859V-1502.5c0-2.68,2.552-4.861,5.686-4.861h18.954c3.134,0,5.686,2.181,5.686,4.861v32.395c0,2.68-2.552,4.859-5.686,4.859h-7.58v4.861h14.049a14.634,14.634,0,0,1,4-1.362c2.218-4.968,7.88-8.358,14.171-8.358a17.28,17.28,0,0,1,6.182,1.135,16,16,0,0,1,12.772-5.994c8.36,0,15.16,5.813,15.16,12.958,0,.159,0,.318-.011.48a13.863,13.863,0,0,1,5.456,2.761h7.823v-16.2h-9.478v-3.241h3.792v-3.238h-5.687c-3.136,0-5.686-2.181-5.686-4.861v-16.2c0-2.68,2.55-4.861,5.686-4.861h26.534c3.134,0,5.686,2.181,5.686,4.861v16.2c0,2.68-2.552,4.861-5.686,4.861h-5.686v3.238h3.789v3.241h-9.475v19.437h-8.921a10.013,10.013,0,0,1,1.179,3.241h11.533v16.2h13.266v29.156Zm3.792-3.238h22.742v-9.72h-22.742Zm-87.186-1.62a1.776,1.776,0,0,0,1.895,1.62h30.325a1.776,1.776,0,0,0,1.9-1.62v-1.62h-34.117Zm3.792-19.437v14.578h26.534v-14.578a1.775,1.775,0,0,0-1.895-1.62h-22.745A1.773,1.773,0,0,0-10389.418-1431.226Zm83.394,8.1h22.742v-9.72h-22.742Zm-52.611-36.729-.353,1.028-1.242.128c-4.754.485-8.34,3.94-8.34,8.034,0,4.467,4.251,8.1,9.478,8.1h41.7c5.225,0,9.478-3.632,9.478-8.1,0-3.958-3.458-7.4-8.039-7.995l-1.874-.243.284-1.6a8.271,8.271,0,0,0,.151-1.5c0-5.359-5.1-9.72-11.371-9.72a11.673,11.673,0,0,0-10.294,5.615l-.9,1.649-1.811-.955a12.807,12.807,0,0,0-5.947-1.448C-10352.744-1466.862-10357.235-1463.981-10358.636-1459.856Zm-34.574-10.247a1.776,1.776,0,0,0,1.895,1.62h18.954a1.773,1.773,0,0,0,1.895-1.62v-8.1h-22.743Zm90.977-8.1h7.58v-3.238h-7.58Zm-90.977-3.238h22.743v-16.2h-22.743Zm79.6-4.861a1.776,1.776,0,0,0,1.9,1.62h26.534a1.773,1.773,0,0,0,1.895-1.62v-1.618h-30.325Zm0-16.2v11.337h30.325V-1502.5a1.773,1.773,0,0,0-1.895-1.62h-26.534A1.776,1.776,0,0,0-10313.607-1502.5Zm-79.6,0v1.618h22.743v-1.618a1.773,1.773,0,0,0-1.895-1.62h-18.954A1.776,1.776,0,0,0-10393.21-1502.5Zm102.348,87.986v-3.791h3.789v3.791Zm-11.371,0v-3.791h7.58v3.791Zm7.58-11.747v-3.789h7.58v3.789Zm-7.58,0v-3.789h3.791v3.789Zm-83.394-45.1v-3.791h7.58v3.791Z" transform="translate(10397 1507.357)" fill="url(#linear-gradient)"/>
    </g>
  </g>
</svg>
